<svg width="80" height="80" viewBox="0 0 80 80" fill="none" xmlns="http://www.w3.org/2000/svg">
<path d="M30.8089 44V42.6705L33.9155 39.794C34.1797 39.5384 34.4013 39.3082 34.5803 39.1037C34.7621 38.8991 34.8999 38.6989 34.9936 38.5028C35.0874 38.304 35.1342 38.0895 35.1342 37.8594C35.1342 37.6037 35.076 37.3835 34.9595 37.1989C34.843 37.0114 34.6839 36.8679 34.4822 36.7685C34.2805 36.6662 34.0518 36.6151 33.7962 36.6151C33.5291 36.6151 33.2962 36.669 33.0973 36.777C32.8984 36.8849 32.745 37.0398 32.6371 37.2415C32.5291 37.4432 32.4751 37.6832 32.4751 37.9616H30.7237C30.7237 37.3906 30.853 36.8949 31.1115 36.4744C31.37 36.054 31.7322 35.7287 32.1982 35.4986C32.6641 35.2685 33.201 35.1534 33.8089 35.1534C34.4339 35.1534 34.978 35.2642 35.4411 35.4858C35.907 35.7045 36.2692 36.0085 36.5277 36.3977C36.7862 36.7869 36.9155 37.233 36.9155 37.7358C36.9155 38.0653 36.8501 38.3906 36.7195 38.7116C36.5916 39.0327 36.3629 39.3892 36.0334 39.7812C35.7038 40.1705 35.2393 40.6378 34.6399 41.1832L33.3658 42.4318V42.4915H37.0305V44H30.8089ZM39.4457 44.1108C39.1644 44.1108 38.9229 44.0114 38.7212 43.8125C38.5224 43.6108 38.4229 43.3693 38.4229 43.0881C38.4229 42.8097 38.5224 42.571 38.7212 42.3722C38.9229 42.1733 39.1644 42.0739 39.4457 42.0739C39.7184 42.0739 39.957 42.1733 40.1616 42.3722C40.3661 42.571 40.4684 42.8097 40.4684 43.0881C40.4684 43.2756 40.4201 43.4474 40.3235 43.6037C40.2298 43.7571 40.1062 43.8807 39.9528 43.9744C39.7994 44.0653 39.6303 44.1108 39.4457 44.1108ZM45.0589 44.1193C44.4567 44.1193 43.9197 44.0085 43.4482 43.7869C42.9794 43.5653 42.6072 43.2599 42.3317 42.8707C42.0561 42.4815 41.9126 42.0355 41.9013 41.5327H43.6911C43.7109 41.8707 43.853 42.1449 44.1172 42.3551C44.3814 42.5653 44.6953 42.6705 45.0589 42.6705C45.3487 42.6705 45.6044 42.6065 45.826 42.4787C46.0504 42.348 46.2251 42.1676 46.3501 41.9375C46.478 41.7045 46.5419 41.4375 46.5419 41.1364C46.5419 40.8295 46.4766 40.5597 46.3459 40.3267C46.218 40.0937 46.0405 39.9119 45.8132 39.7812C45.5859 39.6506 45.326 39.5838 45.0334 39.581C44.7777 39.581 44.5291 39.6335 44.2876 39.7386C44.049 39.8437 43.8629 39.9872 43.7294 40.169L42.0888 39.875L42.5021 35.2727H47.8374V36.7812H44.0234L43.7976 38.9673H43.8487C44.0021 38.7514 44.2337 38.5724 44.5433 38.4304C44.853 38.2884 45.1996 38.2173 45.5831 38.2173C46.1087 38.2173 46.5774 38.3409 46.9893 38.5881C47.4013 38.8352 47.7266 39.1747 47.9652 39.6065C48.2038 40.0355 48.3217 40.5298 48.3189 41.0895C48.3217 41.6776 48.1854 42.2003 47.9098 42.6577C47.6371 43.1122 47.255 43.4702 46.7635 43.7315C46.2749 43.9901 45.7067 44.1193 45.0589 44.1193ZM26.9988 56V47.2727H28.8439V54.4787H32.5854V56H26.9988ZM33.7733 56V49.4545H35.5886V56H33.7733ZM34.6852 48.6108C34.4153 48.6108 34.1838 48.5213 33.9906 48.3423C33.8002 48.1605 33.7051 47.9432 33.7051 47.6903C33.7051 47.4403 33.8002 47.2259 33.9906 47.0469C34.1838 46.8651 34.4153 46.7741 34.6852 46.7741C34.9551 46.7741 35.1852 46.8651 35.3755 47.0469C35.5687 47.2259 35.6653 47.4403 35.6653 47.6903C35.6653 47.9432 35.5687 48.1605 35.3755 48.3423C35.1852 48.5213 34.9551 48.6108 34.6852 48.6108ZM40.5243 49.4545V50.8182H36.5826V49.4545H40.5243ZM37.4775 47.8864H39.2928V53.9886C39.2928 54.1562 39.3184 54.2869 39.3695 54.3807C39.4206 54.4716 39.4917 54.5355 39.5826 54.5724C39.6763 54.6094 39.7843 54.6278 39.9064 54.6278C39.9917 54.6278 40.0769 54.6207 40.1621 54.6065C40.2473 54.5895 40.3127 54.5767 40.3581 54.5682L40.6436 55.919C40.5527 55.9474 40.4249 55.9801 40.2601 56.017C40.0953 56.0568 39.8951 56.081 39.6593 56.0895C39.2218 56.1065 38.8382 56.0483 38.5087 55.9148C38.182 55.7812 37.9277 55.5739 37.7459 55.2926C37.5641 55.0114 37.4746 54.6562 37.4775 54.2273V47.8864ZM41.7069 56V49.4545H43.4668V50.5966H43.535C43.6543 50.1903 43.8546 49.8835 44.1358 49.6761C44.4171 49.4659 44.7409 49.3608 45.1074 49.3608C45.1983 49.3608 45.2963 49.3665 45.4015 49.3778C45.5066 49.3892 45.5989 49.4048 45.6784 49.4247V51.0355C45.5932 51.0099 45.4753 50.9872 45.3248 50.9673C45.1742 50.9474 45.0364 50.9375 44.9114 50.9375C44.6444 50.9375 44.4057 50.9957 44.1955 51.1122C43.9881 51.2259 43.8233 51.3849 43.7012 51.5895C43.5819 51.794 43.5222 52.0298 43.5222 52.2969V56H41.7069ZM49.2953 56.1278C48.622 56.1278 48.0424 55.9915 47.5566 55.7188C47.0737 55.4432 46.7015 55.054 46.4402 54.5511C46.1788 54.0455 46.0481 53.4474 46.0481 52.7571C46.0481 52.0838 46.1788 51.4929 46.4402 50.9844C46.7015 50.4759 47.0694 50.0795 47.5439 49.7955C48.0211 49.5114 48.5808 49.3693 49.2228 49.3693C49.6547 49.3693 50.0566 49.4389 50.4288 49.5781C50.8038 49.7145 51.1305 49.9205 51.4089 50.196C51.6902 50.4716 51.9089 50.8182 52.0652 51.2358C52.2214 51.6506 52.2995 52.1364 52.2995 52.6932V53.1918H46.7725V52.0668H50.5907C50.5907 51.8054 50.5339 51.5739 50.4203 51.3722C50.3066 51.1705 50.149 51.0128 49.9473 50.8991C49.7484 50.7827 49.5169 50.7244 49.2527 50.7244C48.9771 50.7244 48.7328 50.7884 48.5197 50.9162C48.3095 51.0412 48.1447 51.2102 48.0254 51.4233C47.9061 51.6335 47.845 51.8679 47.8422 52.1264V53.196C47.8422 53.5199 47.9018 53.7997 48.0211 54.0355C48.1433 54.2713 48.3152 54.4531 48.5368 54.581C48.7583 54.7088 49.0211 54.7727 49.3251 54.7727C49.5268 54.7727 49.7115 54.7443 49.8791 54.6875C50.0467 54.6307 50.1902 54.5455 50.3095 54.4318C50.4288 54.3182 50.5197 54.179 50.5822 54.0142L52.2612 54.125C52.176 54.5284 52.0012 54.8807 51.737 55.1818C51.4757 55.4801 51.1376 55.7131 50.7228 55.8807C50.3109 56.0455 49.835 56.1278 49.2953 56.1278Z" fill="white"/>
<path d="M1.66642 76.659H12.9119C10.9288 75.7529 9.99877 74.6646 9.99877 73.3261C9.99877 70.4392 9.99877 12.3243 9.99877 8.33376C9.99877 5.58759 13.1332 3.51517 19.5811 1.99801C30.8998 -0.665171 49.0838 -0.666838 60.4093 1.99801C66.8572 3.51517 69.9917 5.58759 69.9917 8.33376C69.9917 29.0785 69.9918 54.2168 69.9917 73.3261C69.9917 74.6646 69.0616 75.7529 67.0785 76.659H78.324C79.2444 76.659 79.9905 77.4053 79.9905 78.3255C79.9905 79.2457 79.2444 79.9919 78.324 79.9919H1.66642C0.746201 79.9919 -4.57764e-05 79.2457 -4.57764e-05 78.3255C-4.57764e-05 77.4053 0.746201 76.659 1.66642 76.659ZM13.3317 22.1893C20.2751 24.7765 29.2362 26.0885 39.9952 26.0885C49.845 26.0885 60.1062 24.9778 66.6587 23.2295V12.5268C56.102 18.0933 23.6777 17.9823 13.3317 12.5268V22.1893ZM66.6587 26.6691C59.8182 28.3597 49.6869 29.4214 39.9952 29.4214C29.4235 29.4214 20.4702 28.1799 13.3317 25.7292V60.5181C20.2751 63.1053 29.2362 64.4173 39.9952 64.4173C49.845 64.4173 60.1062 63.3066 66.6587 61.5583V26.6691ZM59.2424 5.14947C48.5235 2.72893 31.4747 2.72709 20.748 5.14947C14.8375 6.48431 13.395 8.00563 13.3312 8.32493C13.3312 8.32543 13.3314 8.32593 13.3314 8.3266C13.3959 8.66306 14.8394 10.184 20.7483 11.5182C31.4672 13.9388 48.5154 13.9406 59.2421 11.5182C65.1457 10.185 66.5919 8.66572 66.6587 8.34409V8.34026C66.5919 8.0018 65.1461 6.48265 59.2424 5.14947ZM58.4917 75.4268C64.6431 74.4674 66.3001 73.3777 66.6587 73.0723V64.9979C59.8182 66.6885 49.6869 67.7502 39.9952 67.7502C29.4235 67.7502 20.4702 66.5087 13.3317 64.058V73.0724C13.6907 73.3781 15.348 74.4676 21.4987 75.427C32.0408 77.071 47.9659 77.0685 58.4917 75.4268Z" fill="white"/>
</svg>
