<svg width="80" height="80" viewBox="0 0 80 80" fill="none" xmlns="http://www.w3.org/2000/svg">
<path d="M31.8089 44V42.6705L34.9155 39.794C35.1797 39.5384 35.4013 39.3082 35.5803 39.1037C35.7621 38.8991 35.8999 38.6989 35.9936 38.5028C36.0874 38.304 36.1342 38.0895 36.1342 37.8594C36.1342 37.6037 36.076 37.3835 35.9595 37.1989C35.843 37.0114 35.6839 36.8679 35.4822 36.7685C35.2805 36.6662 35.0518 36.6151 34.7962 36.6151C34.5291 36.6151 34.2962 36.669 34.0973 36.777C33.8984 36.8849 33.745 37.0398 33.6371 37.2415C33.5291 37.4432 33.4751 37.6832 33.4751 37.9616H31.7237C31.7237 37.3906 31.853 36.8949 32.1115 36.4744C32.37 36.054 32.7322 35.7287 33.1982 35.4986C33.6641 35.2685 34.201 35.1534 34.8089 35.1534C35.4339 35.1534 35.978 35.2642 36.4411 35.4858C36.907 35.7045 37.2692 36.0085 37.5277 36.3977C37.7862 36.7869 37.9155 37.233 37.9155 37.7358C37.9155 38.0653 37.8501 38.3906 37.7195 38.7116C37.5916 39.0327 37.3629 39.3892 37.0334 39.7812C36.7038 40.1705 36.2393 40.6378 35.6399 41.1832L34.3658 42.4318V42.4915H38.0305V44H31.8089ZM40.4457 44.1108C40.1644 44.1108 39.9229 44.0114 39.7212 43.8125C39.5224 43.6108 39.4229 43.3693 39.4229 43.0881C39.4229 42.8097 39.5224 42.571 39.7212 42.3722C39.9229 42.1733 40.1644 42.0739 40.4457 42.0739C40.7184 42.0739 40.957 42.1733 41.1616 42.3722C41.3661 42.571 41.4684 42.8097 41.4684 43.0881C41.4684 43.2756 41.4201 43.4474 41.3235 43.6037C41.2298 43.7571 41.1062 43.8807 40.9528 43.9744C40.7994 44.0653 40.6303 44.1108 40.4457 44.1108ZM46.0589 44.1193C45.4567 44.1193 44.9197 44.0085 44.4482 43.7869C43.9794 43.5653 43.6072 43.2599 43.3317 42.8707C43.0561 42.4815 42.9126 42.0355 42.9013 41.5327H44.6911C44.7109 41.8707 44.853 42.1449 45.1172 42.3551C45.3814 42.5653 45.6953 42.6705 46.0589 42.6705C46.3487 42.6705 46.6044 42.6065 46.826 42.4787C47.0504 42.348 47.2251 42.1676 47.3501 41.9375C47.478 41.7045 47.5419 41.4375 47.5419 41.1364C47.5419 40.8295 47.4766 40.5597 47.3459 40.3267C47.218 40.0937 47.0405 39.9119 46.8132 39.7812C46.5859 39.6506 46.326 39.5838 46.0334 39.581C45.7777 39.581 45.5291 39.6335 45.2876 39.7386C45.049 39.8437 44.8629 39.9872 44.7294 40.169L43.0888 39.875L43.5021 35.2727H48.8374V36.7812H45.0234L44.7976 38.9673H44.8487C45.0021 38.7514 45.2337 38.5724 45.5433 38.4304C45.853 38.2884 46.1996 38.2173 46.5831 38.2173C47.1087 38.2173 47.5774 38.3409 47.9893 38.5881C48.4013 38.8352 48.7266 39.1747 48.9652 39.6065C49.2038 40.0355 49.3217 40.5298 49.3189 41.0895C49.3217 41.6776 49.1854 42.2003 48.9098 42.6577C48.6371 43.1122 48.255 43.4702 47.7635 43.7315C47.2749 43.9901 46.7067 44.1193 46.0589 44.1193ZM27.9988 56V47.2727H29.8439V54.4787H33.5854V56H27.9988ZM34.7733 56V49.4545H36.5886V56H34.7733ZM35.6852 48.6108C35.4153 48.6108 35.1838 48.5213 34.9906 48.3423C34.8002 48.1605 34.7051 47.9432 34.7051 47.6903C34.7051 47.4403 34.8002 47.2259 34.9906 47.0469C35.1838 46.8651 35.4153 46.7741 35.6852 46.7741C35.9551 46.7741 36.1852 46.8651 36.3755 47.0469C36.5687 47.2259 36.6653 47.4403 36.6653 47.6903C36.6653 47.9432 36.5687 48.1605 36.3755 48.3423C36.1852 48.5213 35.9551 48.6108 35.6852 48.6108ZM41.5243 49.4545V50.8182H37.5826V49.4545H41.5243ZM38.4775 47.8864H40.2928V53.9886C40.2928 54.1562 40.3184 54.2869 40.3695 54.3807C40.4206 54.4716 40.4917 54.5355 40.5826 54.5724C40.6763 54.6094 40.7843 54.6278 40.9064 54.6278C40.9917 54.6278 41.0769 54.6207 41.1621 54.6065C41.2473 54.5895 41.3127 54.5767 41.3581 54.5682L41.6436 55.919C41.5527 55.9474 41.4249 55.9801 41.2601 56.017C41.0953 56.0568 40.8951 56.081 40.6593 56.0895C40.2218 56.1065 39.8382 56.0483 39.5087 55.9148C39.182 55.7812 38.9277 55.5739 38.7459 55.2926C38.5641 55.0114 38.4746 54.6562 38.4775 54.2273V47.8864ZM42.7069 56V49.4545H44.4668V50.5966H44.535C44.6543 50.1903 44.8546 49.8835 45.1358 49.6761C45.4171 49.4659 45.7409 49.3608 46.1074 49.3608C46.1983 49.3608 46.2963 49.3665 46.4015 49.3778C46.5066 49.3892 46.5989 49.4048 46.6784 49.4247V51.0355C46.5932 51.0099 46.4753 50.9872 46.3248 50.9673C46.1742 50.9474 46.0364 50.9375 45.9114 50.9375C45.6444 50.9375 45.4057 50.9957 45.1955 51.1122C44.9881 51.2259 44.8233 51.3849 44.7012 51.5895C44.5819 51.794 44.5222 52.0298 44.5222 52.2969V56H42.7069ZM50.2953 56.1278C49.622 56.1278 49.0424 55.9915 48.5566 55.7188C48.0737 55.4432 47.7015 55.054 47.4402 54.5511C47.1788 54.0455 47.0481 53.4474 47.0481 52.7571C47.0481 52.0838 47.1788 51.4929 47.4402 50.9844C47.7015 50.4759 48.0694 50.0795 48.5439 49.7955C49.0211 49.5114 49.5808 49.3693 50.2228 49.3693C50.6547 49.3693 51.0566 49.4389 51.4288 49.5781C51.8038 49.7145 52.1305 49.9205 52.4089 50.196C52.6902 50.4716 52.9089 50.8182 53.0652 51.2358C53.2214 51.6506 53.2995 52.1364 53.2995 52.6932V53.1918H47.7725V52.0668H51.5907C51.5907 51.8054 51.5339 51.5739 51.4203 51.3722C51.3066 51.1705 51.149 51.0128 50.9473 50.8991C50.7484 50.7827 50.5169 50.7244 50.2527 50.7244C49.9771 50.7244 49.7328 50.7884 49.5197 50.9162C49.3095 51.0412 49.1447 51.2102 49.0254 51.4233C48.9061 51.6335 48.845 51.8679 48.8422 52.1264V53.196C48.8422 53.5199 48.9018 53.7997 49.0211 54.0355C49.1433 54.2713 49.3152 54.4531 49.5368 54.581C49.7583 54.7088 50.0211 54.7727 50.3251 54.7727C50.5268 54.7727 50.7115 54.7443 50.8791 54.6875C51.0467 54.6307 51.1902 54.5455 51.3095 54.4318C51.4288 54.3182 51.5197 54.179 51.5822 54.0142L53.2612 54.125C53.176 54.5284 53.0012 54.8807 52.737 55.1818C52.4757 55.4801 52.1376 55.7131 51.7228 55.8807C51.3109 56.0455 50.835 56.1278 50.2953 56.1278Z" fill="white"/>
<path d="M1.66642 76.659H12.9119C10.9288 75.7529 9.99877 74.6646 9.99877 73.3261C9.99877 70.4392 9.99877 12.3243 9.99877 8.33376C9.99877 5.58759 13.1332 3.51517 19.5811 1.99801C30.8998 -0.665171 49.0838 -0.666838 60.4093 1.99801C66.8572 3.51517 69.9917 5.58759 69.9917 8.33376C69.9917 29.0785 69.9918 54.2168 69.9917 73.3261C69.9917 74.6646 69.0616 75.7529 67.0785 76.659H78.324C79.2444 76.659 79.9905 77.4053 79.9905 78.3255C79.9905 79.2457 79.2444 79.9919 78.324 79.9919H1.66642C0.746201 79.9919 -4.57764e-05 79.2457 -4.57764e-05 78.3255C-4.57764e-05 77.4053 0.746201 76.659 1.66642 76.659ZM13.3317 22.1893C20.2751 24.7765 29.2362 26.0885 39.9952 26.0885C49.845 26.0885 60.1062 24.9778 66.6587 23.2295V12.5268C56.102 18.0933 23.6777 17.9823 13.3317 12.5268V22.1893ZM66.6587 26.6691C59.8182 28.3597 49.6869 29.4214 39.9952 29.4214C29.4235 29.4214 20.4702 28.1799 13.3317 25.7292V60.5181C20.2751 63.1053 29.2362 64.4173 39.9952 64.4173C49.845 64.4173 60.1062 63.3066 66.6587 61.5583V26.6691ZM59.2424 5.14947C48.5235 2.72893 31.4747 2.72709 20.748 5.14947C14.8375 6.48431 13.395 8.00563 13.3312 8.32493C13.3312 8.32543 13.3314 8.32593 13.3314 8.3266C13.3959 8.66306 14.8394 10.184 20.7483 11.5182C31.4672 13.9388 48.5154 13.9406 59.2421 11.5182C65.1457 10.185 66.5919 8.66572 66.6587 8.34409V8.34026C66.5919 8.0018 65.1461 6.48265 59.2424 5.14947ZM58.4917 75.4268C64.6431 74.4674 66.3001 73.3777 66.6587 73.0723V64.9979C59.8182 66.6885 49.6869 67.7502 39.9952 67.7502C29.4235 67.7502 20.4702 66.5087 13.3317 64.058V73.0724C13.6907 73.3781 15.348 74.4676 21.4987 75.427C32.0408 77.071 47.9659 77.0685 58.4917 75.4268Z" fill="white"/>
</svg>
